<svg id="Layer_1" data-name="Layer 1" xmlns="http://www.w3.org/2000/svg" viewBox="0 0 881.18 881.18"><defs><style>.cls-1{fill:#040316;}.cls-2{fill:#ce1d1d;}</style></defs><path class="cls-1" d="M392.3,506.18h16.22l-.13,5.62v57.65c0,2.3-.08,3.51-.08,5l-16.54-.16-32.1-48.77h-.22v40.23c0,5,.06,3.48.17,8.54H343.11l.07-5.62V512.77c0-3-.1-3.93-.1-6.59h20l28.71,45.05h.46V506.18Z"/><path class="cls-1" d="M695,506.18h16.23l-.13,5.62v57.65c0,2.3-.08,3.51-.08,5l-16.55-.16-32.1-48.77h-.21v40.23c0,5,.06,3.48.17,8.54H645.83l.07-5.62V512.77c0-3-.09-3.93-.09-6.59h20l28.71,45.05H695V506.18Z"/><path class="cls-1" d="M558.13,575.92q-2.58-1.71-29.74-1.72-1.78.06-7.62.12l-27,.4c.33-5.39.25-4.76.25-9.57,0-10.77,0-21.54,0-32.31,0-4.43,0-8.87,0-13.3,0-4.25.28-8.78-.82-12.9.11.38,7.14.18,7.77.2,13,.4,26,0,39,0,1.34,0,15.3.09,15.3-.18,0,3.91,0,6.34,0,10.25-10.3-1.29-20.68-.91-31-.91h-1.28c-13,0-11.86,2.71-11.86,8.13v9.69q5.34.41,13.64.4h6.77c4,0,6.33-.13,10.25-.19v9.87c-3.65-.1-4.22-.16-7.85-.16q-17.48,0-22.81.4c-.51.06-.08,14.89-.08,16.28,0,1.54,0,3.13,1.64,4,1.77.92,4,.8,6,.8,6.78,0,13.56,0,20.34-.08,6.39,0,12.91.33,19.22-.76C557.84,564.37,558.13,574.8,558.13,575.92Z"/><path class="cls-2" d="M282,645.86q0,12.72,15.41,12.73,16.9,0,16.91-12.73V511.74l-.11-5.39h17.13V641c0,10.7-3.29,17.83-9.86,22.37q-8.25,5.67-25,5.68-12.56,0-20.63-4-10.72-5.2-10.72-16.45V512l-.2-5.62H282Z"/><path class="cls-1" d="M481.16,586H465.07l.16-6.59v-6.7q-5.67,3.26-14,3.26-18.22,0-27.05-11.34-7.17-9.24-7.16-23.9t7.68-24.19q9.33-11.62,27.62-11.63c2.83,0,7.22-.05,18.88,1.55,2,.27,4.22.68,10,1.5l-6.73,14.47c-2.25-1.25-4.29-2.85-6.57-4-3.46-1.82-7.45-2.24-11.3-2.37-.8,0-1.6,0-2.41,0q-20,0-20,25,0,22.18,21.27,22.18,6.71,0,9.85-4.87v-16.1a58.42,58.42,0,0,0-.25-6.59h16.11c-.22,2.78-.15,3.95-.15,6.59v37.19Z"/><path class="cls-1" d="M403.3,679.07H387.22l.16-6.59v-6.71Q381.69,669,373.33,669q-18.22,0-27.05-11.35-7.15-9.23-7.16-23.9t7.68-24.18Q356.15,598,374.42,598c2.83,0,7.23-.05,18.88,1.56,2,.26,4.23.68,10,1.49l-6.73,14.48c-2.25-1.26-4.3-2.86-6.58-4.06-3.46-1.82-7.44-2.23-11.29-2.37-.81,0-1.61,0-2.41,0q-20,0-20,25.05,0,22.17,21.26,22.18,6.71,0,9.86-4.87V635.28a56.53,56.53,0,0,0-.26-6.59h16.12c-.22,2.79-.16,4-.16,6.59v37.2Z"/><path class="cls-1" d="M786.52,554.48q0,11-10.89,16.79a53.83,53.83,0,0,1-8.16,3.22,23.66,23.66,0,0,1-4.44.74c-1.52.19-3,.35-4.58.47a91.53,91.53,0,0,1-19.29-.68,77.8,77.8,0,0,1-18-4.75c-.58-.24-1.16-.46-1.75-.68l7.75-12.94c4,3.36,6.35,4.31,11.66,6.26a42.92,42.92,0,0,0,14.79,2.57q15.76,0,15.76-9.57,0-6.7-10.66-10.14L741,540.1q-15.48-5-15.48-15.94,0-10.08,10.84-15.3a39.72,39.72,0,0,1,10.81-3.32,43.17,43.17,0,0,1,6.2-.65,115.07,115.07,0,0,1,13,.38q6.58.6,13.12,1.57c1,.15,2.07.21,3.12.32l-6,12.43s-2.32-1.26-2.55-1.38a20.68,20.68,0,0,0-2.59-1.16,27.66,27.66,0,0,0-5.54-1.35,49.27,49.27,0,0,0-6.43-.46,51,51,0,0,0-6.3.24,17.46,17.46,0,0,0-5.92,1.46,9.93,9.93,0,0,0-1.22.71,6.15,6.15,0,0,0-2.68,5v.2q0,5.21,12,8.71l12.5,3.61Q786.51,540.56,786.52,554.48Z"/><path class="cls-1" d="M481.59,647.6q0,11-10.89,16.8a54.85,54.85,0,0,1-8.16,3.21,23.53,23.53,0,0,1-4.44.74c-1.52.2-3.05.35-4.58.47a90.75,90.75,0,0,1-19.28-.68,77.54,77.54,0,0,1-18-4.75c-.59-.23-1.17-.46-1.76-.67l7.75-12.94c4,3.35,6.35,4.3,11.66,6.25a42.7,42.7,0,0,0,14.79,2.58q15.76,0,15.76-9.57,0-6.7-10.66-10.15l-17.65-5.67q-15.48-5-15.47-15.93,0-10.1,10.83-15.31a39.72,39.72,0,0,1,10.81-3.32,43.17,43.17,0,0,1,6.2-.65,115.24,115.24,0,0,1,13,.38q6.57.6,13.11,1.57c1.05.15,2.07.21,3.12.32l-6,12.43s-2.32-1.26-2.55-1.38a19.27,19.27,0,0,0-2.59-1.15,27.76,27.76,0,0,0-5.53-1.36,53.32,53.32,0,0,0-6.43-.46,51.06,51.06,0,0,0-6.31.24,18,18,0,0,0-5.92,1.46,10,10,0,0,0-1.22.72,6.14,6.14,0,0,0-2.68,5V616q0,5.22,12,8.71l12.5,3.61Q481.59,633.67,481.59,647.6Z"/><path class="cls-1" d="M186.27,562.85c.07-8.51,0-17,0-25.55,0-8.75.16-17.48-.54-26.2-.08-.93-.16-1.85-.25-2.77a8.64,8.64,0,0,1-.06-1.76,1,1,0,0,1,.23-.61,1.22,1.22,0,0,1,.75-.13h30.13q17.66,0,28.26,7.22,12.38,8.43,12.38,25.33c0,7.48-1.38,15.2-5.56,21.53-3.95,6-10.06,10-16.79,12.2-9.8,3.27-20,2.93-30.16,2.71-6.2,0-12.4-.31-18.61-.33Q186.23,568.67,186.27,562.85Zm53.91-23.26c0-8.54-2.56-17.5-10.79-21.49-6.34-3.08-14-2.64-20.85-2.64-3.48,0-5.21,1.24-5.21,3.72v41.61q0,4.53,4.92,4.53h6.42s-.07-.06-.23-.06Q240.18,565.26,240.18,539.59Z"/><path class="cls-1" d="M165.24,641.77c-.27.19-3.2,4.84-6.11,8.58a25.86,25.86,0,0,0,2.58,4.53l4,6.08a70,70,0,0,0,4.6,6.59l-6.75,0-8.94.06h-.52a1.37,1.37,0,0,1-.29,0,1.83,1.83,0,0,1-.39-.48c-.87-1.06-1.7-2.16-2.5-3.28-.38-.55-.73-1.12-1.13-1.65s-.68-.66-1.18-.33a41.83,41.83,0,0,1-7,3.84,37.16,37.16,0,0,1-5.72,1.88A54.74,54.74,0,0,1,122.86,669q-11.13,0-18.69-4.07-9.51-5.1-9.51-15.3,0-13.7,20.86-20.41-8-.68-11.58-7.16a13.24,13.24,0,0,1-1.6-6.48q0-9,9.86-13.86A39.6,39.6,0,0,1,130,598a39,39,0,0,1,17,3.44q9.28,4.47,9.29,13.3,0,10.95-19.26,18.39-14.61,5.63-16.22,6.48-8.82,4.59-9,10.37a7.09,7.09,0,0,0,4.06,6.77,16.6,16.6,0,0,0,8.2,1.89,27.23,27.23,0,0,0,11.78-2.69,35.62,35.62,0,0,0,8.28-5.57c4.7-4.12,9.06-10.56,10.22-13.72m0,0M140.16,615q0-6.59-10.77-6.59t-10.77,7.51q0,8.15,10.77,8.14Q140.16,622.28,140.16,615Z"/><path class="cls-1" d="M184.17,655c.48-12.37.14-24.77.14-37.14q0-5-.08-9.93c0-3.2-.44-6.35-.68-9.54,12.35.23,24.66-.41,37-.41q12.19,0,20.4,3,11.75,4.35,11.75,14.79,0,9.29-12.9,13.52v.12q17.37,2.92,17.37,16.67,0,11-11.87,16.62-8.76,4.37-21.37,4.36c-13.16,0-26.34-.57-39.49-.31a1,1,0,0,1-.43,0h0c-.14-.1-.13-.44-.13-.59C183.78,662.46,184,658.72,184.17,655Zm25-47.45c-.86,0-1.61,0-2.26,0-1.73,0-4.26.15-5.21,1.86a5,5,0,0,0-.43,2.48l0,10a4.74,4.74,0,0,0,.22,1.68,4.11,4.11,0,0,0,2.88,2,35.07,35.07,0,0,0,10.77,1c4.7-.1,9.47-.45,13.88-2.07,2.31-.84,4.6-2.13,5.8-4.27a7.19,7.19,0,0,0-.82-7.89c-1.82-2.2-4.67-3.16-7.36-3.79a40,40,0,0,0-9.14-.87M232,636c-4-1.41-8.37-1.53-12.6-1.76-2.5-.14-5-.3-7.52-.3q-10.54,0-10.54,4.29v13.64q0,4.14,3.78,5c1.15.3,4.89.46,11.23.46A47.11,47.11,0,0,0,231.84,655q8.31-3,8.31-9Q240.15,638.83,232,636Z"/><path class="cls-1" d="M637.54,540.39q0,35.54-37.2,35.53T563.2,540.39q0-35.53,37.14-35.53T637.54,540.39Zm-15.71,0q0-25.1-21.55-25.1-21.37,0-21.37,25.1t21.37,25.1Q621.84,565.49,621.83,540.39Z"/><polygon class="cls-2" points="466.25 364.19 404.42 426.02 331.05 352.65 392.88 290.82 447.73 345.67 402.58 390.82 364.34 352.58 391.56 325.36 411.86 345.67 402.88 354.65 391.56 343.33 382.31 352.58 402.58 372.85 429.76 345.67 392.88 308.78 349.02 352.65 404.42 408.05 457.27 355.21 466.25 364.19"/><polygon class="cls-1" points="480.66 422.12 440.59 462.19 414.99 436.59 423.98 427.61 440.59 444.22 471.68 413.13 480.66 422.12"/><polygon class="cls-1" points="570.63 332.15 493.44 409.34 476.82 392.73 445.7 423.85 436.72 414.86 476.82 374.76 493.44 391.37 561.64 323.17 570.63 332.15"/><polygon class="cls-2" points="480.3 241.82 552.94 314.46 495.59 371.8 486.61 362.82 534.97 314.46 506.12 285.61 477.6 314.13 460.58 297.11 469.57 288.12 477.6 296.16 497.13 276.63 480.3 259.79 440.04 300.05 476.55 336.56 507.13 305.98 516.11 314.97 476.55 354.53 422.07 300.05 480.3 241.82"/><polygon class="cls-1" points="470.07 231.59 461.08 240.58 440.59 220.08 412.08 248.6 403.09 239.61 440.59 202.12 470.07 231.59"/><polygon class="cls-1" points="441.25 242.45 450.23 251.43 411.84 289.82 391.35 269.33 319.54 341.13 310.56 332.15 391.35 251.36 411.84 271.85 441.25 242.45"/></svg>