<svg id="Layer_1" data-name="Layer 1" xmlns="http://www.w3.org/2000/svg" viewBox="0 0 881.18 881.18"><defs><style>.cls-1{fill:#040316;}.cls-2{fill:#ce1d1d;}</style></defs><path class="cls-1" d="M388.79,348.59h17.4l-.13,6v61.84c0,2.46-.09,3.77-.09,5.34l-17.75-.18-34.43-52.3h-.23v43.16c0,5.32.07,3.73.18,9.15H336l.07-6V355.66c0-3.24-.1-4.22-.1-7.07h21.5l30.79,48.31h.49V348.59Z"/><path class="cls-1" d="M713.49,348.59H730.9l-.14,6v61.84c0,2.46-.08,3.77-.08,5.34l-17.75-.18-34.43-52.3h-.23v43.16c0,5.32.06,3.73.17,9.15H660.73l.08-6V355.66c0-3.24-.1-4.22-.1-7.07H682.2L713,396.9h.49V348.59Z"/><path class="cls-1" d="M566.67,423.39q-2.77-1.84-31.91-1.84-1.9.06-8.17.12l-29,.43c.35-5.78.27-5.1.27-10.27,0-11.55,0-23.1,0-34.65,0-4.75,0-9.51,0-14.26,0-4.57.3-9.42-.87-13.85.11.41,7.65.2,8.33.22,13.91.44,27.91,0,41.84,0,1.44,0,16.41.1,16.41-.2,0,4.2.05,6.8,0,11-11-1.38-22.18-1-33.29-1h-1.38c-13.93,0-12.71,2.91-12.71,8.72v10.4q5.72.44,14.63.43H538c4.3,0,6.8-.15,11-.2V389c-3.92-.11-4.53-.18-8.42-.18q-18.75,0-24.46.43c-.55.08-.1,16-.09,17.47,0,1.66,0,3.35,1.75,4.25,1.91,1,4.31.86,6.4.86,7.27,0,14.54-.05,21.82-.09,6.84-.05,13.84.36,20.61-.81C566.35,411,566.67,422.18,566.67,423.39Z"/><path class="cls-2" d="M270.52,498.41q0,13.65,16.53,13.64,18.13,0,18.14-13.64V354.54l-.12-5.77h18.37v144.4c0,11.47-3.52,19.11-10.57,24Q304,523.24,286,523.24q-13.47,0-22.13-4.24-11.51-5.6-11.5-17.64V354.79l-.22-6h18.32Z"/><path class="cls-1" d="M484.11,434.15H466.85l.17-7.07v-7.19q-6.09,3.5-15.06,3.5-19.54,0-29-12.17-7.69-9.9-7.69-25.63t8.24-25.94q10-12.48,29.63-12.48c3,0,7.75-.06,20.25,1.66,2.13.29,4.53.73,10.69,1.61L476.85,366c-2.42-1.34-4.61-3.06-7.05-4.35-3.72-1.95-8-2.39-12.12-2.54-.86,0-1.72,0-2.58,0q-21.47,0-21.46,26.86,0,23.79,22.81,23.79,7.19,0,10.57-5.22V387.18a60.4,60.4,0,0,0-.27-7.06H484c-.23,3-.17,4.24-.17,7.06v39.9Z"/><path class="cls-1" d="M400.6,534H383.34l.17-7.07v-7.19q-6.08,3.51-15.06,3.51-19.54,0-29-12.18-7.69-9.88-7.69-25.63T340,459.52Q350,447,369.62,447c3,0,7.75-.05,20.25,1.67,2.13.28,4.53.73,10.69,1.6l-7.22,15.53c-2.42-1.35-4.6-3.06-7-4.35-3.71-1.95-8-2.4-12.12-2.54-.86,0-1.72,0-2.58,0q-21.46,0-21.46,26.86,0,23.79,22.81,23.79,7.19,0,10.57-5.23V487.06a60.57,60.57,0,0,0-.27-7.07h17.28c-.23,3-.16,4.24-.16,7.07V527Z"/><path class="cls-1" d="M811.64,400.39q0,11.81-11.68,18a57.74,57.74,0,0,1-8.76,3.45,24.52,24.52,0,0,1-4.76.79c-1.64.21-3.27.38-4.91.51a98.07,98.07,0,0,1-20.69-.73,83.05,83.05,0,0,1-19.35-5.1c-.62-.25-1.25-.49-1.88-.72l8.31-13.88c4.31,3.6,6.81,4.62,12.51,6.71a45.9,45.9,0,0,0,15.86,2.76q16.9,0,16.91-10.26,0-7.2-11.44-10.88L762.83,385q-16.61-5.34-16.6-17.09,0-10.81,11.62-16.41a42.86,42.86,0,0,1,11.6-3.57,46.57,46.57,0,0,1,6.65-.69,124.86,124.86,0,0,1,13.95.41q7.05.64,14.06,1.68c1.13.17,2.23.22,3.35.35L801,363s-2.49-1.35-2.75-1.49a22.87,22.87,0,0,0-2.77-1.23,29,29,0,0,0-5.94-1.45,61.76,61.76,0,0,0-13.66-.24,19,19,0,0,0-6.35,1.56,10.58,10.58,0,0,0-1.3.77,6.57,6.57,0,0,0-2.88,5.36v.21q0,5.6,12.91,9.34l13.4,3.88Q811.64,385.45,811.64,400.39Z"/><path class="cls-1" d="M484.57,500.28q0,11.79-11.68,18a59.91,59.91,0,0,1-8.76,3.45,25.3,25.3,0,0,1-4.76.79c-1.63.21-3.27.38-4.91.5a98.07,98.07,0,0,1-20.69-.73,83,83,0,0,1-19.34-5.09c-.63-.25-1.25-.5-1.89-.72l8.31-13.88c4.31,3.59,6.82,4.61,12.52,6.7a45.61,45.61,0,0,0,15.85,2.77q16.9,0,16.91-10.27,0-7.19-11.43-10.88l-18.94-6.08q-16.59-5.36-16.59-17.09,0-10.83,11.61-16.42a42.8,42.8,0,0,1,11.61-3.56,47.77,47.77,0,0,1,6.64-.7,124.86,124.86,0,0,1,14,.41c4.7.43,9.4,1,14.07,1.68,1.12.17,2.22.23,3.35.35l-6.47,13.33s-2.49-1.35-2.74-1.48a21.6,21.6,0,0,0-2.78-1.24,29.35,29.35,0,0,0-5.93-1.45,62.68,62.68,0,0,0-13.67-.23,18.74,18.74,0,0,0-6.34,1.56,10.64,10.64,0,0,0-1.31.76,6.59,6.59,0,0,0-2.87,5.37,1.34,1.34,0,0,0,0,.2q0,5.6,12.91,9.35l13.4,3.87Q484.57,485.34,484.57,500.28Z"/><path class="cls-1" d="M167.81,409.37c.08-9.13,0-18.27,0-27.41,0-9.38.18-18.74-.58-28.1q-.12-1.49-.27-3a8.54,8.54,0,0,1-.06-1.89.92.92,0,0,1,.25-.65,1.26,1.26,0,0,1,.79-.14H200.3q18.93,0,30.3,7.75,13.29,9,13.28,27.17c0,8-1.48,16.29-6,23.08-4.23,6.42-10.79,10.68-18,13.09-10.52,3.51-21.43,3.15-32.36,2.9-6.65,0-13.3-.32-19.95-.35Q167.76,415.61,167.81,409.37Zm57.82-24.95c0-9.16-2.74-18.77-11.57-23.05-6.8-3.3-15-2.83-22.37-2.83q-5.59,0-5.59,4v44.63q0,4.86,5.29,4.86h6.88s-.08-.06-.25-.06Q225.64,412,225.63,384.42Z"/><path class="cls-1" d="M145.25,494c-.29.2-3.44,5.19-6.55,9.21a28.63,28.63,0,0,0,2.77,4.85l4.24,6.52a76.5,76.5,0,0,0,4.93,7.07l-7.23,0-9.59.06h-.56a1.05,1.05,0,0,1-.31,0,2.15,2.15,0,0,1-.43-.51q-1.4-1.71-2.67-3.52c-.41-.58-.79-1.19-1.22-1.77s-.73-.7-1.26-.35a45,45,0,0,1-7.56,4.12,41.22,41.22,0,0,1-6.14,2,59,59,0,0,1-13.88,1.53q-11.92,0-20-4.37-10.2-5.48-10.2-16.41,0-14.7,22.37-21.89-8.61-.74-12.42-7.68A14.26,14.26,0,0,1,77.78,466q0-9.64,10.58-14.87a42.52,42.52,0,0,1,19-4.06,41.84,41.84,0,0,1,18.26,3.69q10,4.8,10,14.26,0,11.75-20.66,19.73-15.68,6-17.39,6.95-9.47,4.92-9.65,11.13a7.58,7.58,0,0,0,4.36,7.25,17.79,17.79,0,0,0,8.79,2,29.15,29.15,0,0,0,12.63-2.88,38.44,38.44,0,0,0,8.88-6c5-4.43,9.73-11.34,11-14.73m0,0-15.21-23.2q0-7.07-11.55-7.07t-11.56,8q0,8.73,11.56,8.73Q118.35,473.11,118.35,465.3Z"/><path class="cls-1" d="M165.56,508.2c.51-13.27.14-26.57.14-39.84,0-3.55,0-7.1-.08-10.65s-.48-6.81-.73-10.23c13.24.24,26.44-.44,39.68-.44q13.1,0,21.88,3.26,12.6,4.67,12.61,15.86,0,10-13.84,14.51v.12q18.63,3.13,18.63,17.89,0,11.81-12.72,17.82-9.4,4.68-22.93,4.68c-14.12,0-28.25-.61-42.36-.34a1.19,1.19,0,0,1-.46,0l0,0c-.15-.11-.13-.47-.14-.63C165.14,516.21,165.4,512.2,165.56,508.2Zm26.81-50.89q-1.38-.06-2.43-.06c-1.85,0-4.56.16-5.59,2a5.43,5.43,0,0,0-.45,2.66l0,10.71a4.93,4.93,0,0,0,.23,1.8c.49,1.21,1.84,1.82,3.09,2.19a37.62,37.62,0,0,0,11.55,1.09c5.05-.11,10.16-.48,14.9-2.22,2.47-.9,4.93-2.28,6.22-4.58a7.72,7.72,0,0,0-.89-8.46c-2-2.36-5-3.38-7.89-4.07a43,43,0,0,0-9.8-.93M216.8,487.8c-4.33-1.52-9-1.64-13.51-1.89-2.69-.15-5.38-.33-8.06-.33q-11.31,0-11.31,4.61v14.63q0,4.44,4.05,5.41,1.84.5,12.05.5a50.31,50.31,0,0,0,16.66-2.52q8.91-3.27,8.91-9.66Q225.59,490.87,216.8,487.8Z"/><path class="cls-1" d="M651.83,385.28q0,38.12-39.89,38.11t-39.83-38.11q0-38.11,39.83-38.11T651.83,385.28Zm-16.84,0q0-26.92-23.11-26.92-22.93,0-22.93,26.92t22.93,26.92Q635,412.2,635,385.28Z"/></svg>