<svg id="Layer_1" data-name="Layer 1" xmlns="http://www.w3.org/2000/svg" viewBox="0 0 881.18 881.18"><defs><style>.cls-1{fill:#ce1d1d;}.cls-2{fill:#040316;}</style></defs><polygon class="cls-1" points="495.77 509.48 362.83 642.42 205.06 484.66 338 351.72 455.94 469.65 358.87 566.73 276.65 484.51 335.16 426 378.81 469.65 359.5 488.97 335.16 464.63 315.28 484.51 358.87 528.1 417.31 469.65 338 390.35 243.7 484.66 362.83 603.79 476.45 490.17 495.77 509.48"/><polygon class="cls-2" points="526.75 634.02 440.59 720.18 385.55 665.14 404.87 645.83 440.59 681.55 507.43 614.71 526.75 634.02"/><polygon class="cls-2" points="720.18 440.59 554.21 606.56 518.49 570.84 451.58 637.75 432.27 618.43 518.49 532.21 554.21 567.92 700.86 421.27 720.18 440.59"/><polygon class="cls-1" points="525.96 246.37 682.15 402.55 558.85 525.85 539.53 506.53 643.51 402.55 581.48 340.52 520.17 401.83 483.58 365.24 502.89 345.92 520.17 363.2 562.17 321.21 525.96 285 439.4 371.56 517.91 450.07 583.65 384.33 602.97 403.64 517.91 488.7 400.76 371.56 525.96 246.37"/><polygon class="cls-2" points="503.97 224.38 484.65 243.7 440.59 199.63 379.28 260.94 359.97 241.62 440.59 161 503.97 224.38"/><polygon class="cls-2" points="442 247.72 461.32 267.04 378.78 349.58 334.72 305.51 180.32 459.91 161 440.59 334.72 266.88 378.78 310.94 442 247.72"/></svg>